<svg width="436" height="436" viewBox="0 0 436 436" fill="none" xmlns="http://www.w3.org/2000/svg">
<path d="M232.352 27.8594L233.304 29.082L234.459 28.0488L253.823 10.7256L265.868 33.749L266.587 35.1211L267.907 34.3115L290.054 20.7256L297.794 45.5283L298.256 47.0068L299.7 46.4463L323.917 37.0322L327.104 62.8193L327.294 64.3564L328.815 64.0625L354.323 59.124L352.855 85.0654L352.768 86.6123L354.316 86.5938L380.297 86.291L374.221 111.553L373.857 113.059L375.386 113.317L401.002 117.658L390.513 141.429L389.887 142.846L391.344 143.373L415.773 152.218L401.209 173.733L400.34 175.017L401.68 175.796L424.137 188.86L405.964 207.43L404.881 208.537L406.06 209.543L425.823 226.407L404.627 241.433L403.363 242.329L404.343 243.529L420.778 263.651L397.239 274.651L395.836 275.308L396.586 276.663L409.164 299.396L384.04 306.017L382.541 306.411L383.037 307.879L391.354 332.494L365.451 334.521L363.906 334.642L364.133 336.175L367.92 361.879L342.072 359.248L340.53 359.092L340.479 360.64L339.616 386.607L314.653 379.403L313.164 378.974L312.837 380.488L307.352 405.885L284.076 394.339L282.688 393.65L282.096 395.082L272.163 419.091L251.323 403.575L250.081 402.649L249.242 403.953L235.183 425.802L217.448 406.814L216.391 405.682L215.333 406.814L197.598 425.802L183.539 403.953L182.7 402.649L181.458 403.575L160.617 419.091L150.686 395.082L150.093 393.65L148.705 394.339L125.429 405.885L119.944 380.488L119.617 378.974L118.128 379.403L93.1641 386.607L92.3018 360.64L92.251 359.092L90.709 359.248L64.8604 361.879L68.6484 336.175L68.875 334.642L67.3301 334.521L41.4268 332.494L49.7441 307.879L50.2402 306.411L48.7412 306.017L23.6162 299.396L36.1953 276.663L36.9453 275.308L35.542 274.651L12.002 263.651L28.4385 243.529L29.418 242.329L28.1543 241.433L6.95703 226.407L26.7217 209.543L27.9004 208.537L26.8174 207.43L8.64355 188.86L31.1016 175.796L32.4414 175.017L31.5723 173.733L17.0059 152.217L41.4375 143.373L42.8945 142.846L42.2686 141.429L31.7783 117.658L57.3955 113.317L58.9238 113.059L58.5605 111.553L52.4834 86.291L78.4648 86.5938L80.0137 86.6123L79.9258 85.0654L78.457 59.124L103.966 64.0625L105.487 64.3564L105.678 62.8193L108.863 37.0322L133.081 46.4463L134.525 47.0068L134.987 45.5283L142.727 20.7256L164.874 34.3115L166.194 35.1211L166.913 33.749L178.957 10.7256L198.322 28.0488L199.478 29.082L200.43 27.8594L216.391 7.35645L232.352 27.8594Z" stroke="#DFEAE3" stroke-width="2.8942"/>
<path d="M216.389 24.4453L232.03 42.4044L250.626 27.5267L262.808 47.9899L283.762 36.6717L292.095 58.9813L314.733 51.5864L318.948 75.0255L342.543 71.7915L342.505 95.6066L366.298 96.6376L362.009 120.063L385.235 125.326L376.832 147.609L398.745 156.935L386.498 177.36L406.394 190.448L390.697 208.358L407.937 224.788L389.294 239.607L403.322 258.852L382.333 270.104L392.7 291.545L370.039 298.868L376.411 321.815L352.806 324.975L354.978 348.691L331.189 347.585L329.091 371.307L305.882 365.971L299.582 388.938L277.698 379.544L267.399 401.017L247.544 387.866L233.577 407.155L216.389 390.67L199.202 407.155L185.234 387.866L165.379 401.017L155.08 379.544L133.196 388.938L126.896 365.971L103.687 371.307L101.589 347.585L77.7999 348.691L79.972 324.975L56.3675 321.815L62.7393 298.868L40.0782 291.545L50.4449 270.104L29.4558 258.852L43.4842 239.607L24.8415 224.788L42.0808 208.358L26.3837 190.448L46.2798 177.36L34.0329 156.935L55.9462 147.609L47.5431 125.326L70.7694 120.063L66.4802 96.6376L90.2729 95.6066L90.2355 71.7915L113.83 75.0255L118.045 51.5864L140.683 58.9813L149.016 36.6717L169.97 47.9899L182.152 27.5267L200.748 42.4044L216.389 24.4453Z" fill="#DFEAE3"/>
<path d="M216.39 49.0469L231.372 49.7197L246.234 51.7329L260.855 55.0701L275.119 59.7046L288.909 65.5989L302.116 72.7057L314.632 80.9678L326.358 90.3185L337.198 100.683L347.065 111.977L355.88 124.11L363.573 136.984L370.08 150.497L375.349 164.538L379.339 178.995L382.017 193.751L383.362 208.688V223.686L382.017 238.623L379.339 253.379L375.349 267.836L370.08 281.877L363.573 295.389L355.88 308.264L347.065 320.397L337.198 331.691L326.358 342.055L314.632 351.406L302.116 359.668L288.909 366.775L275.119 372.669L260.855 377.304L246.234 380.641L231.372 382.654L216.39 383.327L201.408 382.654L186.546 380.641L171.925 377.304L157.661 372.669L143.871 366.775L130.664 359.668L118.148 351.406L106.422 342.055L95.582 331.691L85.7147 320.397L76.8994 308.264L69.2073 295.389L62.7001 281.877L57.4304 267.836L53.4406 253.379L50.7626 238.623L49.4183 223.686V208.688L50.7626 193.751L53.4406 178.995L57.4304 164.538L62.7001 150.497L69.2073 136.984L76.8994 124.11L85.7147 111.977L95.582 100.683L106.422 90.3185L118.148 80.9678L130.664 72.7057L143.871 65.5989L157.661 59.7046L171.925 55.0701L186.546 51.7329L201.408 49.7197L216.39 49.0469Z" fill="#F2F7F4"/>
<circle cx="217.759" cy="217.558" r="121.556" fill="white"/>
<path d="M87.3367 182.959C87.0006 184.243 86.4741 185.381 85.7573 186.372C85.0448 187.346 84.1878 188.134 83.1863 188.734C82.1891 189.317 81.089 189.689 79.8859 189.849C78.6871 189.993 77.4456 189.897 76.1612 189.561C75.0745 189.276 74.1007 188.863 73.2397 188.321C72.3665 187.758 71.6184 187.088 70.9954 186.309C70.3723 185.53 69.8925 184.674 69.556 183.742C69.203 182.805 69.0054 181.812 68.9633 180.763C68.909 179.693 69.0283 178.598 69.3214 177.479C69.5627 176.556 69.8605 175.755 70.2147 175.073C70.5568 174.371 70.8649 173.766 71.1388 173.257C71.417 172.731 71.5602 172.285 71.5684 171.918L76.5944 172.679L76.4264 173.321C74.7301 173.282 73.3783 173.64 72.3709 174.397C71.3471 175.15 70.6456 176.25 70.2664 177.699C70.0423 178.556 69.9568 179.387 70.0099 180.192C70.0629 180.998 70.2446 181.749 70.5548 182.446C70.8486 183.139 71.2523 183.781 71.7659 184.373C72.2839 184.948 72.9018 185.444 73.6197 185.861C74.3211 186.273 75.1081 186.593 75.9808 186.822C77.0675 187.106 78.1397 187.211 79.1974 187.136C80.2429 187.04 81.2098 186.774 82.098 186.338C82.9905 185.885 83.7611 185.26 84.4098 184.462C85.042 183.66 85.5024 182.707 85.7911 181.604C86.1617 180.188 86.1209 178.831 85.6687 177.534C85.1999 176.233 84.3326 175.144 83.0666 174.267L83.2347 173.625C84.4465 174.171 85.4208 174.918 86.1576 175.868C86.8944 176.817 87.3675 177.9 87.5771 179.116C87.7745 180.311 87.6944 181.592 87.3367 182.959ZM89.8721 172.989L89.2855 172.737C89.574 171.805 89.6434 171.103 89.4938 170.632C89.3285 170.154 88.9643 169.794 88.4012 169.552L76.4817 164.44C75.9029 164.192 75.3833 164.173 74.9228 164.383C74.4624 164.593 74.0019 165.127 73.5413 165.985L72.9547 165.734L74.927 161.135L89.3571 167.323C89.9359 167.571 90.4477 167.587 90.8925 167.37C91.3373 167.154 91.7944 166.628 92.2639 165.792L92.8505 166.043L89.8721 172.989ZM95.3058 160.318C95.156 160.365 94.9113 160.418 94.5716 160.476C94.2162 160.527 93.7391 160.517 93.1401 160.445L89.0773 160.008C88.3487 159.937 87.7162 160.008 87.1798 160.222C86.6345 160.415 86.1673 160.705 85.7783 161.094C85.3805 161.46 85.0463 161.872 84.7757 162.33C84.4963 162.766 84.266 163.195 84.0849 163.618L84.7021 161.66C84.9324 161.166 85.1817 160.671 85.45 160.175C85.725 159.663 86.0604 159.205 86.4561 158.801C86.8517 158.396 87.3401 158.078 87.9212 157.846C88.5023 157.614 89.1985 157.523 90.0098 157.575L93.4995 157.794C94.2794 157.832 94.8952 157.67 95.3467 157.308C95.7893 156.924 96.214 156.365 96.621 155.632L97.2075 155.884L95.3058 160.318ZM83.4207 165.166L82.576 164.804L83.8775 161.64C84.271 160.679 84.4903 159.801 84.5351 159.005C84.5711 158.187 84.4115 157.48 84.0563 156.883C83.7078 156.27 83.1581 155.803 82.4073 155.481C81.3123 155.012 80.3055 155.071 79.3868 155.658C78.4592 156.223 77.6723 157.238 77.0261 158.701L75.6207 161.849L74.776 161.487L76.1546 158.272C77.1206 156.02 78.2484 154.448 79.5381 153.556C80.8122 152.658 82.1141 152.494 83.4437 153.064C84.1163 153.353 84.6481 153.775 85.0391 154.332C85.4368 154.873 85.7003 155.532 85.8298 156.31C85.9503 157.065 85.9277 157.917 85.7621 158.864C85.6032 159.796 85.3024 160.778 84.8597 161.811L83.4207 165.166ZM97.5783 154.999L97.0377 154.66C97.3219 154.175 97.451 153.633 97.4251 153.034C97.3938 152.411 97.0687 151.665 96.4497 150.794L87.0501 137.148L87.9052 135.785L104.289 138.352C105.261 138.5 106.044 138.469 106.638 138.259C107.218 138.04 107.696 137.647 108.072 137.08L108.613 137.419L104.31 144.274L103.77 143.934C104.461 142.801 104.756 142.011 104.654 141.565C104.546 141.096 104.037 140.787 103.126 140.637L88.4768 138.284L88.6296 137.657L97.2496 150C97.7948 150.764 98.2858 151.102 98.7225 151.015C99.1593 150.927 99.7197 150.355 100.404 149.297L100.944 149.636L97.5783 154.999ZM94.8245 147.332L94.1144 146.495L98.6069 139.337L99.6563 139.634L94.8245 147.332ZM109.427 136.349L108.94 135.936C109.516 135.152 109.82 134.506 109.851 133.996C109.869 133.475 109.612 132.989 109.08 132.537L99.1948 124.142C98.7149 123.734 98.2249 123.575 97.725 123.664C97.2232 123.729 96.6093 124.123 95.8833 124.846L95.3968 124.433L105.313 112.758L109.395 115.722L108.965 116.228C108.143 115.775 107.455 115.481 106.901 115.345C106.333 115.198 105.849 115.177 105.447 115.282C105.032 115.377 104.637 115.578 104.264 115.886C103.878 116.183 103.474 116.566 103.054 117.035L99.3834 121.12L105.163 126.028L107.068 123.627C107.507 123.084 107.758 122.605 107.82 122.189C107.883 121.774 107.795 121.364 107.557 120.961C107.306 120.547 106.924 120.077 106.41 119.551L106.84 119.045L112.405 123.772L111.975 124.278C111.399 123.878 110.892 123.581 110.454 123.387C110.015 123.194 109.584 123.162 109.16 123.294C108.747 123.412 108.309 123.743 107.846 124.288L105.785 126.557L110.708 130.739C111.085 131.058 111.455 131.227 111.818 131.246C112.169 131.253 112.555 131.101 112.977 130.789C113.398 130.477 113.914 130 114.526 129.359L115.013 129.772L109.427 136.349ZM123.934 120.239L123.505 119.766C124.038 119.213 124.422 118.738 124.658 118.339C124.907 117.93 124.997 117.548 124.93 117.196C124.851 116.83 124.623 116.44 124.245 116.024L114.425 105.215L112.298 107.355C111.981 107.689 111.718 108.02 111.51 108.347C111.29 108.662 111.164 109.029 111.132 109.449C111.101 109.845 111.174 110.331 111.351 110.906C111.541 111.469 111.875 112.166 112.353 112.996L111.881 113.425L108.722 109.189L120.778 98.2365L124.655 101.82L124.183 102.249C123.402 101.694 122.734 101.3 122.179 101.069C121.625 100.813 121.143 100.688 120.733 100.692C120.336 100.685 119.97 100.776 119.635 100.965C119.302 101.13 118.954 101.354 118.591 101.638L116.239 103.567L126.059 114.376C126.448 114.805 126.827 115.07 127.196 115.172C127.553 115.261 127.941 115.207 128.36 115.011C128.768 114.801 129.266 114.464 129.855 113.998L130.284 114.47L123.934 120.239ZM148.625 101.815C147.413 102.541 146.182 103.019 144.932 103.251C143.674 103.468 142.458 103.442 141.285 103.172C140.118 102.878 139.037 102.365 138.043 101.631C137.04 100.882 136.18 99.9091 135.464 98.7113C134.896 97.7619 134.498 96.7996 134.272 95.8244C134.046 94.8492 133.977 93.8888 134.066 92.9431C134.16 91.9742 134.407 91.0433 134.805 90.1507C135.203 89.258 135.752 88.4341 136.45 87.679C137.149 86.924 137.987 86.2537 138.966 85.6683C140.178 84.9431 141.406 84.4762 142.65 84.2677C143.9 84.0358 145.108 84.0666 146.275 84.36C147.448 84.6301 148.536 85.1394 149.54 85.888C150.534 86.622 151.385 87.5805 152.093 88.7636C152.661 89.713 153.062 90.6827 153.297 91.6725C153.524 92.6477 153.59 93.6198 153.495 94.5888C153.406 95.5344 153.163 96.4535 152.765 97.3462C152.366 98.2389 151.818 99.0628 151.119 99.8178C150.435 100.564 149.604 101.23 148.625 101.815ZM158.626 98.5405C157.874 99.3072 157.093 99.9235 156.281 100.389C155.477 100.87 154.66 101.21 153.827 101.411C153.01 101.602 152.209 101.655 151.424 101.57C150.638 101.484 149.897 101.273 149.2 100.936L150.998 98.6705C151.474 98.9018 151.977 99.0965 152.508 99.2549C153.054 99.4044 153.624 99.4796 154.22 99.4804C154.839 99.4871 155.475 99.3741 156.129 99.1414C156.807 98.9146 157.516 98.5098 158.259 97.927L158.626 98.5405ZM148.127 100.983C148.843 100.555 149.435 100.052 149.903 99.4747C150.376 98.874 150.727 98.2177 150.956 97.5058C151.199 96.7852 151.321 96.0279 151.322 95.2339C151.315 94.4254 151.176 93.5962 150.905 92.7464C150.65 91.8879 150.264 91.0278 149.748 90.166C148.883 88.72 147.879 87.6051 146.736 86.8213C145.593 86.0375 144.389 85.6171 143.126 85.5599C141.868 85.4795 140.647 85.7931 139.464 86.5008C138.763 86.9202 138.176 87.4303 137.702 88.031C137.22 88.617 136.857 89.2704 136.613 89.9911C136.37 90.7117 136.248 91.469 136.247 92.263C136.246 93.0569 136.373 93.8832 136.629 94.7417C136.885 95.6002 137.27 96.4603 137.786 97.3221C138.642 98.7535 139.654 99.864 140.82 100.654C141.978 101.429 143.193 101.852 144.466 101.924C145.738 101.996 146.959 101.682 148.127 100.983ZM164.43 74.2217L164.192 73.6294L170.02 71.2892L170.258 71.8814C169.522 72.287 169.041 72.7095 168.814 73.1492C168.58 73.573 168.584 74.085 168.825 74.6852L172.145 83.0911C172.678 84.4178 172.862 85.6739 172.696 86.8594C172.539 88.0227 172.065 89.0568 171.273 89.9618C170.481 90.8667 169.413 91.5888 168.071 92.1278C166.965 92.5718 165.916 92.8371 164.924 92.9237C163.941 92.9882 163.034 92.8757 162.202 92.586C161.371 92.2963 160.63 91.8232 159.982 91.1667C159.342 90.488 158.816 89.6353 158.404 88.6087L155.037 80.2218C154.808 79.6532 154.468 79.2855 154.016 79.1186C153.573 78.9295 152.914 78.9557 152.039 79.197L151.801 78.6047L158.743 75.8174L158.981 76.4097C158.087 76.8786 157.526 77.3329 157.299 77.7726C157.072 78.2122 157.076 78.7242 157.311 79.3086L160.679 87.6954C161.104 88.7537 161.696 89.5889 162.455 90.201C163.208 90.7974 164.065 91.1502 165.026 91.2596C166.003 91.3626 167.028 91.1984 168.102 90.7672C169.145 90.3486 169.959 89.7739 170.546 89.043C171.142 88.29 171.499 87.4409 171.614 86.4957C171.724 85.5348 171.561 84.5362 171.127 83.5002L167.688 75.1418C167.437 74.5638 167.062 74.2008 166.563 74.0529C166.079 73.8987 165.368 73.9549 164.43 74.2217ZM176.756 88.4121L176.611 87.7905C177.154 87.6465 177.627 87.3527 178.031 86.9092C178.447 86.4453 178.742 85.6862 178.916 84.6321L181.854 68.3243L183.42 67.9594L193.244 81.3208C193.83 82.1105 194.407 82.64 194.977 82.9093C195.542 83.162 196.159 83.2194 196.826 83.0815L196.97 83.7032L189.088 85.5392L188.944 84.9176C190.233 84.5999 190.998 84.2468 191.24 83.8585C191.494 83.4497 191.351 82.8715 190.809 82.1238L182.066 70.136L182.617 69.7981L180.043 84.6317C179.892 85.5582 180.002 86.1442 180.374 86.3896C180.746 86.6351 181.547 86.6232 182.777 86.354L182.922 86.9757L176.756 88.4121ZM180.2 81.03L180.286 79.9353L188.516 78.0181L189.052 78.9681L180.2 81.03ZM198.301 83.5155L198.246 82.8796C199.237 82.6907 199.914 82.4181 200.276 82.0619C200.636 81.6888 200.79 81.197 200.737 80.5866L199.608 67.6408C199.553 67.0134 199.316 66.5557 198.898 66.2675C198.479 65.9624 197.765 65.8111 196.757 65.8136L196.702 65.1777L204.459 64.5012L204.515 65.137C203.505 65.3105 202.82 65.5838 202.459 65.957C202.114 66.3117 201.969 66.8027 202.024 67.4301L203.31 82.1817L209.249 81.51C210.178 81.3947 210.912 80.9891 211.449 80.293C212.002 79.5785 212.423 78.4397 212.714 76.8767L213.375 76.819L213.053 82.2289L198.301 83.5155ZM220.889 79.4503C220.879 80.097 221.068 80.5849 221.454 80.9141C221.858 81.2265 222.553 81.4411 223.538 81.5579L223.529 82.1961L215.743 82.0803L215.752 81.4421C216.758 81.3549 217.459 81.1526 217.855 80.835C218.252 80.5005 218.454 80.0269 218.464 79.4142L218.657 66.4207C218.666 65.791 218.477 65.3116 218.091 64.9825C217.705 64.6363 217.01 64.4132 216.007 64.3131L216.017 63.675L223.802 63.7907L223.793 64.4289C222.771 64.4988 222.061 64.7011 221.665 65.0356C221.286 65.3534 221.091 65.8271 221.082 66.4568L220.889 79.4503ZM229.85 82.8064L229.927 82.1728C230.694 82.2145 231.305 82.1944 231.761 82.1127C232.233 82.0329 232.581 81.8523 232.804 81.5708C233.029 81.2723 233.175 80.8443 233.243 80.2868L235.004 65.7901L231.995 65.5787C231.535 65.557 231.113 65.5743 230.729 65.6305C230.347 65.6698 229.986 65.8146 229.647 66.0649C229.327 66.3003 229.008 66.673 228.688 67.1828C228.386 67.6948 228.077 68.403 227.762 69.3077L227.128 69.2307L228.269 64.0714L244.439 66.0365L244.26 71.3127L243.627 71.2357C243.537 70.2818 243.398 69.5191 243.21 68.9477C243.042 68.3614 242.822 67.9145 242.55 67.6073C242.296 67.302 241.988 67.0846 241.627 66.9549C241.284 66.8104 240.887 66.6936 240.435 66.6043L237.437 66.0857L235.676 80.5824C235.606 81.1569 235.653 81.617 235.816 81.9626C235.982 82.2914 236.277 82.55 236.699 82.7386C237.124 82.9103 237.705 83.0666 238.443 83.2076L238.366 83.8412L229.85 82.8064ZM249.198 85.9306L249.362 85.3138C250.358 85.4732 251.079 85.4447 251.524 85.2284C251.99 85 252.302 84.5898 252.459 83.9976L253.739 79.1864L251.066 70.26C250.929 69.7832 250.774 69.3722 250.602 69.0269C250.45 68.6696 250.224 68.3628 249.922 68.1065C249.625 67.8337 249.186 67.5939 248.607 67.3871L248.771 66.7703L256.198 68.745L256.034 69.3619C255.157 69.2167 254.514 69.2484 254.107 69.457C253.715 69.6699 253.604 70.0894 253.772 70.7153L255.971 78.5385L261.84 72.8607C262.313 72.4053 262.45 71.9925 262.249 71.622C262.064 71.256 261.522 70.9094 260.623 70.5822L260.787 69.9653L266.585 71.5071L266.421 72.124C265.931 72.0465 265.483 72.0418 265.078 72.1101C264.689 72.1827 264.325 72.3239 263.988 72.5335C263.671 72.7311 263.324 73.0087 262.947 73.3664L256.107 79.8162L254.828 84.6275C254.662 85.2525 254.726 85.7716 255.021 86.1847C255.337 86.5858 255.951 86.9603 256.862 87.3083L256.698 87.9251L249.198 85.9306ZM277.386 96.3255C276.192 95.7464 275.178 95.0092 274.345 94.1136C273.527 93.2254 272.921 92.2319 272.527 91.133C272.148 90.0415 271.996 88.8901 272.073 87.6788C272.165 86.475 272.5 85.2757 273.079 84.081C273.569 83.0702 274.163 82.195 274.862 81.4556C275.584 80.7083 276.387 80.1047 277.272 79.6446C278.157 79.1846 279.089 78.88 280.069 78.7309C281.057 78.5664 282.069 78.5653 283.107 78.7276C284.167 78.882 285.217 79.2116 286.259 79.7163C287.117 80.132 287.845 80.5798 288.445 81.0596C289.067 81.5314 289.602 81.9511 290.048 82.3186C290.509 82.6935 290.919 82.9207 291.278 83L289.556 87.7827L288.958 87.4932C289.326 85.8368 289.237 84.441 288.69 83.306C288.15 82.1556 287.207 81.2537 285.859 80.6005C285.062 80.2145 284.264 79.9693 283.463 79.8651C282.663 79.7608 281.89 79.7931 281.147 79.9622C280.41 80.1159 279.702 80.3873 279.021 80.7763C278.356 81.1727 277.75 81.6826 277.202 82.306C276.661 82.914 276.194 83.6239 275.801 84.4357C275.311 85.4465 275 86.478 274.869 87.5301C274.76 88.5744 274.833 89.5745 275.088 90.5305C275.359 91.4939 275.823 92.3712 276.48 93.1623C277.144 93.9382 277.989 94.5748 279.015 95.0722C280.332 95.7105 281.671 95.9338 283.031 95.7419C284.399 95.5347 285.636 94.8953 286.741 93.8235L287.339 94.113C286.568 95.1959 285.646 96.0065 284.571 96.545C283.497 97.0835 282.343 97.3376 281.109 97.3071C279.899 97.2688 278.658 96.9416 277.386 96.3255ZM294.735 106.597C293.574 105.792 292.63 104.869 291.902 103.827C291.185 102.77 290.707 101.652 290.468 100.472C290.253 99.2882 290.275 98.0918 290.533 96.883C290.8 95.6603 291.331 94.4753 292.126 93.3282C292.756 92.4188 293.469 91.6597 294.263 91.0507C295.058 90.4418 295.904 89.9825 296.802 89.6729C297.724 89.3589 298.673 89.1989 299.651 89.1929C300.628 89.1868 301.605 89.346 302.581 89.6704C303.557 89.9949 304.514 90.4818 305.452 91.1313C306.613 91.9359 307.545 92.8615 308.249 93.9081C308.976 94.9504 309.447 96.0637 309.662 97.2479C309.9 98.4278 309.886 99.6291 309.618 100.852C309.36 102.061 308.839 103.232 308.054 104.365C307.424 105.274 306.706 106.04 305.902 106.663C305.107 107.272 304.249 107.733 303.328 108.047C302.43 108.357 301.492 108.515 300.515 108.521C299.537 108.527 298.56 108.368 297.584 108.043C296.622 107.729 295.672 107.247 294.735 106.597ZM295.287 105.8C295.973 106.275 296.675 106.606 297.394 106.794C298.137 106.977 298.88 107.026 299.622 106.94C300.379 106.864 301.119 106.662 301.843 106.335C302.576 105.994 303.274 105.525 303.936 104.928C304.612 104.341 305.236 103.634 305.808 102.809C306.768 101.424 307.369 100.049 307.61 98.6841C307.852 97.3192 307.738 96.0495 307.268 94.8749C306.822 93.696 306.032 92.714 304.899 91.9287C304.227 91.4634 303.52 91.1391 302.778 90.9558C302.045 90.7585 301.3 90.6979 300.543 90.774C299.786 90.8501 299.046 91.0517 298.323 91.3786C297.599 91.7055 296.899 92.1627 296.223 92.7502C295.547 93.3377 294.923 94.0441 294.351 94.8695C293.401 96.2405 292.807 97.6203 292.57 99.0088C292.342 100.383 292.458 101.665 292.918 102.853C293.379 104.042 294.168 105.024 295.287 105.8ZM304.566 113.32L305.009 112.86C305.815 113.495 306.472 113.832 306.978 113.871C307.508 113.909 307.986 113.708 308.411 113.267L317.392 103.945C317.864 103.455 318.066 102.952 317.996 102.435C317.938 101.931 317.571 101.294 316.895 100.524L317.338 100.064L320.666 103.271L318.197 122.979L317.387 123.085L326.877 113.013C327.184 112.695 327.365 112.372 327.419 112.046C327.497 111.72 327.449 111.366 327.273 110.984C327.109 110.59 326.806 110.144 326.363 109.647L326.806 109.187L331.494 113.704L331.052 114.164C330.257 113.516 329.601 113.179 329.083 113.153C328.576 113.114 328.105 113.322 327.668 113.775L316.774 125.082L315.597 123.948L318.041 103.897L318.869 103.773L309.202 114.028C308.918 114.322 308.737 114.633 308.659 114.959C308.581 115.286 308.624 115.646 308.788 116.04C308.975 116.434 309.285 116.886 309.716 117.395L309.273 117.855L304.566 113.32ZM322.585 131.679L323.09 131.289C323.598 131.865 324.041 132.287 324.419 132.554C324.807 132.836 325.179 132.957 325.536 132.918C325.907 132.869 326.315 132.674 326.76 132.331L338.332 123.423L336.373 121.129C336.065 120.786 335.757 120.497 335.448 120.263C335.152 120.018 334.796 119.862 334.38 119.796C333.987 119.733 333.497 119.766 332.91 119.896C332.333 120.04 331.612 120.316 330.745 120.725L330.356 120.219L334.835 117.416L344.771 130.323L340.883 133.895L340.494 133.389C341.111 132.657 341.558 132.023 341.834 131.488C342.133 130.957 342.298 130.487 342.327 130.078C342.366 129.682 342.305 129.31 342.144 128.962C342.007 128.616 341.812 128.251 341.558 127.866L339.827 125.365L328.255 134.273C327.796 134.626 327.501 134.982 327.369 135.341C327.251 135.69 327.273 136.081 327.435 136.515C327.611 136.938 327.907 137.462 328.323 138.087L327.817 138.476L322.585 131.679ZM334.892 147.584L338.008 152.773C338.316 153.283 338.647 153.712 339 154.059C339.362 154.422 339.761 154.695 340.197 154.878C340.648 155.053 341.167 155.14 341.754 155.14C342.364 155.147 343.076 155.056 343.89 154.87L344.204 155.425L339.236 157.065L331.598 143.581L332.154 143.267C332.746 144.105 333.275 144.607 333.741 144.774C334.23 144.947 334.741 144.882 335.274 144.58L346.581 138.176C347.129 137.865 347.447 137.46 347.536 136.96C347.647 136.466 347.489 135.754 347.059 134.824L347.615 134.509L355.164 147.838L350.977 150.65L350.65 150.072C351.357 149.456 351.87 148.912 352.189 148.438C352.522 147.956 352.708 147.508 352.748 147.094C352.802 146.672 352.749 146.233 352.588 145.776C352.427 145.319 352.206 144.809 351.926 144.244L349.354 139.393L342.756 143.13L344.355 145.745C344.714 146.344 345.07 146.748 345.424 146.959C345.792 147.161 346.214 147.215 346.69 147.122C347.165 147.029 347.738 146.831 348.408 146.53L348.736 147.107L342.382 150.706L342.055 150.128C342.644 149.717 343.093 149.335 343.402 148.984C343.735 148.639 343.909 148.257 343.926 147.837C343.957 147.408 343.804 146.879 343.466 146.248L342.045 143.532L334.892 147.584ZM340.752 159.989L341.348 159.761C341.808 160.679 342.26 161.262 342.702 161.512C343.166 161.772 343.684 161.792 344.256 161.573L356.345 156.947C356.98 156.703 357.376 156.333 357.532 155.836C357.694 155.355 357.633 154.622 357.347 153.638L357.943 153.41L359.595 157.726L348.993 174.522L348.214 174.273L361.083 169.184C361.496 169.026 361.796 168.811 361.984 168.539C362.193 168.276 362.3 167.935 362.303 167.514C362.322 167.088 362.236 166.556 362.047 165.917L362.643 165.689L364.97 171.769L364.374 171.998C363.929 171.074 363.478 170.491 363.02 170.247C362.578 169.997 362.063 169.984 361.475 170.209L346.811 175.822L346.227 174.296L356.953 157.179L357.755 157.418L344.648 162.599C344.267 162.745 343.971 162.949 343.762 163.211C343.553 163.474 343.438 163.818 343.419 164.244C343.422 164.681 343.511 165.221 343.684 165.865L343.088 166.093L340.752 159.989ZM349.271 184.26L349.894 184.123C350.109 184.859 350.331 185.429 350.56 185.832C350.792 186.251 351.078 186.519 351.417 186.636C351.773 186.749 352.226 186.745 352.774 186.624L367.033 183.472L366.234 180.564C366.101 180.122 365.945 179.73 365.764 179.386C365.6 179.039 365.344 178.747 364.996 178.51C364.667 178.287 364.21 178.109 363.623 177.977C363.039 177.862 362.269 177.806 361.311 177.808L361.173 177.185L366.418 176.549L369.933 192.453L364.897 194.037L364.759 193.414C365.629 193.012 366.303 192.628 366.78 192.261C367.277 191.907 367.625 191.552 367.825 191.194C368.028 190.852 368.131 190.49 368.133 190.106C368.156 189.735 368.134 189.321 368.068 188.865L367.562 185.865L353.303 189.017C352.738 189.142 352.32 189.339 352.048 189.608C351.793 189.874 351.647 190.237 351.609 190.699C351.588 191.156 351.634 191.756 351.746 192.499L351.122 192.636L349.271 184.26ZM357.273 222.44C357.294 221.844 357.45 221.305 357.739 220.821C358.045 220.355 358.441 219.986 358.928 219.713C359.414 219.458 359.946 219.34 360.524 219.361C361.102 219.381 361.616 219.536 362.066 219.824C362.532 220.13 362.893 220.526 363.148 221.012C363.403 221.514 363.52 222.064 363.499 222.659C363.479 223.237 363.324 223.76 363.035 224.226C362.746 224.693 362.359 225.054 361.873 225.309C361.404 225.565 360.88 225.683 360.302 225.663C359.724 225.642 359.201 225.488 358.735 225.199C358.268 224.91 357.898 224.522 357.626 224.036C357.371 223.55 357.253 223.018 357.273 222.44ZM351.353 242.618L351.972 242.774C351.814 243.822 351.864 244.564 352.123 244.997C352.378 245.448 352.795 245.746 353.372 245.891L365.874 249.041C366.271 249.141 366.628 249.152 366.946 249.074C367.264 248.996 367.561 248.79 367.838 248.456C368.111 248.139 368.36 247.64 368.584 246.959L369.203 247.115L367.033 255.731C366.5 257.843 365.705 259.363 364.647 260.29C363.605 261.221 362.382 261.51 360.979 261.156C360.237 260.969 359.622 260.621 359.136 260.113C358.666 259.608 358.335 258.972 358.142 258.204C357.966 257.44 357.945 256.583 358.079 255.634C357.689 256.764 357.184 257.69 356.563 258.411C355.943 259.133 355.254 259.635 354.498 259.918C353.743 260.202 352.952 260.24 352.127 260.032C351.368 259.84 350.72 259.519 350.184 259.068C349.661 258.638 349.257 258.08 348.974 257.394C348.707 256.713 348.576 255.908 348.582 254.979C348.583 254.066 348.734 253.016 349.033 251.828L351.353 242.618ZM350.973 247.788L350.036 251.923C349.82 252.921 349.781 253.806 349.92 254.579C350.075 255.355 350.39 255.987 350.864 256.475C351.35 256.984 351.973 257.334 352.732 257.525C353.541 257.729 354.286 257.697 354.967 257.43C355.661 257.184 356.252 256.753 356.741 256.139C357.245 255.529 357.61 254.778 357.835 253.887L358.944 249.796L350.973 247.788ZM359.761 250.002L358.956 253.512C358.769 254.395 358.744 255.187 358.884 255.889C359.018 256.608 359.306 257.207 359.747 257.686C360.204 258.17 360.796 258.504 361.522 258.687C362.232 258.865 362.878 258.844 363.461 258.622C364.06 258.404 364.589 258.011 365.048 257.442C365.503 256.89 365.857 256.18 366.111 255.314L367.089 251.848L359.761 250.002ZM357.922 279.921L358.511 280.168L356.084 285.961L355.495 285.714C355.723 284.905 355.761 284.266 355.607 283.795C355.469 283.332 355.102 282.975 354.506 282.725L346.19 279.185C344.871 278.633 343.848 277.881 343.121 276.93C342.402 276.002 341.999 274.938 341.911 273.739C341.823 272.539 342.059 271.272 342.618 269.938C343.078 268.839 343.626 267.906 344.261 267.139C344.906 266.394 345.623 265.827 346.413 265.438C347.204 265.05 348.06 264.855 348.983 264.854C349.915 264.876 350.892 265.1 351.912 265.528L360.248 269.021C360.813 269.257 361.313 269.273 361.75 269.069C362.195 268.886 362.64 268.399 363.082 267.606L363.671 267.853L360.78 274.752L360.192 274.506C360.485 273.54 360.556 272.822 360.402 272.352C360.248 271.881 359.881 271.524 359.3 271.281L350.965 267.788C349.913 267.348 348.903 267.183 347.934 267.293C346.98 267.411 346.127 267.773 345.374 268.38C344.615 269.003 344.012 269.848 343.565 270.916C343.131 271.952 342.968 272.936 343.076 273.867C343.193 274.82 343.547 275.67 344.139 276.416C344.746 277.169 345.571 277.754 346.614 278.173L354.979 281.595C355.567 281.822 356.088 281.81 356.544 281.558C356.994 281.322 357.453 280.777 357.922 279.921ZM338.05 286.522C337.487 286.204 336.968 286.135 336.494 286.317C336.027 286.522 335.506 287.03 334.931 287.839L334.376 287.525L338.205 280.745L338.76 281.059C338.355 281.983 338.198 282.695 338.287 283.195C338.391 283.704 338.709 284.108 339.243 284.41L350.558 290.8C351.106 291.109 351.618 291.173 352.092 290.992C352.581 290.818 353.109 290.315 353.677 289.482L354.233 289.796L350.404 296.577L349.848 296.263C350.276 295.332 350.438 294.612 350.334 294.104C350.237 293.619 349.914 293.221 349.365 292.912L338.05 286.522ZM333.161 289.502L333.681 289.871C333.184 290.749 332.955 291.442 332.992 291.948C333.044 292.464 333.32 292.899 333.82 293.253L344.424 300.764C344.938 301.128 345.44 301.244 345.93 301.111C346.434 300.989 347.011 300.542 347.661 299.772L348.182 300.141L343.682 306.495L343.161 306.126C343.681 305.244 343.916 304.544 343.865 304.028C343.817 303.536 343.536 303.107 343.022 302.743L330.939 294.185L327.611 299.149C327.098 299.932 326.933 300.754 327.116 301.614C327.304 302.498 327.9 303.556 328.904 304.788L328.52 305.33L324.602 301.586L333.161 289.502ZM330.576 322.417C329.499 323.553 328.36 324.432 327.16 325.053C325.961 325.675 324.748 326.038 323.523 326.142C322.298 326.271 321.109 326.127 319.954 325.712C318.799 325.297 317.722 324.615 316.722 323.666C315.722 322.718 314.978 321.684 314.491 320.565C314.004 319.446 313.775 318.278 313.803 317.061C313.831 315.845 314.124 314.621 314.682 313.39C315.227 312.172 316.039 310.995 317.117 309.859L322.951 303.71L323.414 304.149C322.796 304.924 322.47 305.565 322.435 306.071C322.388 306.59 322.612 307.084 323.106 307.552L332.459 316.426C332.953 316.895 333.458 317.092 333.974 317.018C334.478 316.957 335.1 316.597 335.842 315.94L336.305 316.379L330.576 322.417ZM320.085 308.029L317.858 310.562C317.238 311.264 316.758 311.993 316.416 312.749C316.063 313.517 315.849 314.287 315.773 315.059C315.698 315.856 315.754 316.637 315.943 317.402C316.12 318.18 316.429 318.931 316.869 319.654C317.298 320.389 317.858 321.084 318.549 321.74C319.401 322.549 320.314 323.145 321.287 323.528C322.249 323.924 323.229 324.115 324.228 324.101C325.239 324.098 326.221 323.892 327.173 323.482C328.126 323.095 329.013 322.506 329.835 321.714L332.142 319.468L320.085 308.029ZM296.827 327.712C297.476 327.245 298.149 326.854 298.846 326.54C299.54 326.25 300.209 325.957 300.855 325.659C301.497 325.385 302.064 325.008 302.557 324.527L305.927 328.549L305.41 328.922C304.494 328.176 303.569 327.679 302.634 327.429C301.699 327.18 300.784 327.147 299.889 327.331C298.989 327.539 298.139 327.931 297.338 328.508C296.717 328.956 296.225 329.468 295.864 330.043C295.488 330.628 295.298 331.238 295.293 331.871C295.284 332.528 295.508 333.174 295.966 333.809C296.414 334.43 296.941 334.827 297.547 334.998C298.153 335.17 298.808 335.191 299.512 335.061C300.226 334.945 300.963 334.76 301.724 334.506C302.494 334.265 303.27 334.031 304.05 333.804C304.831 333.577 305.593 333.427 306.337 333.352C307.09 333.292 307.8 333.389 308.466 333.643C309.142 333.911 309.743 334.411 310.271 335.143C310.848 335.944 311.143 336.79 311.157 337.683C311.157 338.585 310.917 339.46 310.438 340.309C309.955 341.182 309.237 341.962 308.285 342.648C307.677 343.086 307.116 343.428 306.6 343.673C306.071 343.929 305.587 344.131 305.149 344.279C304.72 344.441 304.334 344.604 303.99 344.768C303.633 344.941 303.32 345.177 303.052 345.475L300.081 341.92L300.599 341.547C301.386 342.26 302.196 342.715 303.03 342.911C303.86 343.131 304.675 343.141 305.475 342.942C306.276 342.743 307.028 342.389 307.732 341.882C308.326 341.454 308.785 340.955 309.109 340.386C309.429 339.841 309.593 339.282 309.6 338.71C309.604 338.162 309.427 337.64 309.068 337.143C308.66 336.576 308.163 336.221 307.577 336.077C306.987 335.957 306.34 335.962 305.636 336.092C304.918 336.231 304.172 336.433 303.398 336.698C302.623 336.962 301.834 337.206 301.03 337.429C300.235 337.666 299.456 337.808 298.693 337.854C297.915 337.911 297.184 337.799 296.498 337.517C295.798 337.244 295.17 336.722 294.613 335.949C293.946 335.024 293.613 334.067 293.615 333.08C293.603 332.103 293.88 331.148 294.446 330.215C294.998 329.293 295.792 328.459 296.827 327.712ZM285.693 335.109L285.996 335.671C285.161 336.238 284.656 336.753 284.48 337.215C284.297 337.701 284.352 338.213 284.643 338.752L287.009 343.132L295.073 347.8C295.5 348.053 295.894 348.247 296.257 348.38C296.612 348.536 296.987 348.604 297.383 348.584C297.786 348.579 298.269 348.453 298.833 348.207L299.136 348.768L292.375 352.421L292.072 351.859C292.81 351.364 293.256 350.9 293.41 350.469C293.549 350.046 293.342 349.664 292.791 349.323L285.827 345.134L285.446 353.291C285.413 353.947 285.597 354.341 285.997 354.473C286.382 354.613 287.015 354.494 287.894 354.116L288.197 354.678L282.918 357.529L282.615 356.968C283.025 356.688 283.354 356.385 283.603 356.057C283.836 355.737 284.004 355.385 284.106 355.001C284.201 354.64 284.264 354.201 284.293 353.682L284.853 344.297L282.487 339.917C282.179 339.348 281.776 339.014 281.278 338.916C280.773 338.84 280.07 338.988 279.168 339.359L278.864 338.798L285.693 335.109ZM266.202 344.175C266.95 343.89 267.701 343.686 268.455 343.562C269.2 343.46 269.922 343.349 270.623 343.228C271.314 343.128 271.959 342.91 272.559 342.572L274.781 347.326L274.184 347.553C273.492 346.597 272.726 345.878 271.887 345.396C271.047 344.915 270.171 344.647 269.259 344.595C268.336 344.564 267.414 344.724 266.491 345.076C265.776 345.348 265.169 345.716 264.671 346.179C264.158 346.648 263.817 347.188 263.649 347.798C263.472 348.431 263.522 349.113 263.801 349.844C264.074 350.56 264.481 351.079 265.023 351.401C265.564 351.722 266.192 351.911 266.905 351.967C267.625 352.039 268.385 352.05 269.185 352C269.992 351.965 270.802 351.939 271.614 351.921C272.427 351.902 273.202 351.953 273.94 352.072C274.684 352.208 275.344 352.484 275.922 352.901C276.506 353.334 276.959 353.972 277.28 354.815C277.632 355.738 277.7 356.632 277.483 357.498C277.251 358.369 276.794 359.154 276.113 359.851C275.421 360.57 274.527 361.138 273.429 361.556C272.73 361.823 272.099 362.009 271.538 362.114C270.961 362.224 270.441 362.295 269.979 362.325C269.523 362.372 269.108 362.43 268.734 362.499C268.344 362.575 267.981 362.723 267.646 362.941L265.69 358.742L266.286 358.514C266.863 359.406 267.529 360.054 268.284 360.458C269.029 360.884 269.814 361.104 270.639 361.117C271.464 361.131 272.282 360.983 273.093 360.674C273.777 360.413 274.349 360.049 274.808 359.583C275.258 359.138 275.56 358.64 275.715 358.09C275.859 357.561 275.822 357.011 275.604 356.438C275.355 355.786 274.966 355.315 274.437 355.025C273.898 354.757 273.271 354.595 272.558 354.539C271.828 354.489 271.055 354.492 270.239 354.549C269.423 354.605 268.597 354.637 267.762 354.646C266.934 354.67 266.145 354.607 265.395 354.455C264.629 354.31 263.951 354.013 263.361 353.564C262.755 353.121 262.282 352.454 261.943 351.564C261.536 350.498 261.461 349.489 261.717 348.535C261.957 347.587 262.47 346.736 263.257 345.981C264.028 345.231 265.01 344.63 266.202 344.175ZM253.835 348.426L253.982 349.047C253.249 349.274 252.683 349.504 252.283 349.739C251.868 349.978 251.604 350.268 251.493 350.609C251.385 350.967 251.397 351.419 251.526 351.966L254.9 366.174L257.796 365.329C258.235 365.19 258.625 365.027 258.966 364.841C259.311 364.672 259.599 364.411 259.83 364.059C260.048 363.727 260.219 363.266 260.342 362.678C260.448 362.093 260.492 361.321 260.474 360.363L261.095 360.216L261.813 365.451L245.966 369.214L244.304 364.203L244.925 364.056C245.34 364.919 245.734 365.587 246.108 366.057C246.47 366.549 246.831 366.892 247.192 367.086C247.537 367.284 247.901 367.381 248.285 367.377C248.656 367.394 249.069 367.366 249.524 367.293L252.516 366.74L249.142 352.532C249.008 351.969 248.804 351.554 248.531 351.286C248.262 351.035 247.896 350.895 247.434 350.865C246.976 350.851 246.376 350.906 245.636 351.029L245.489 350.408L253.835 348.426ZM234.282 353.132L228.273 353.854C227.681 353.927 227.155 354.053 226.693 354.234C226.214 354.416 225.802 354.668 225.457 354.992C225.113 355.332 224.821 355.77 224.581 356.305C224.325 356.859 224.117 357.546 223.955 358.365L223.319 358.425L223.853 353.22L239.282 351.762L239.342 352.397C238.335 352.595 237.66 352.873 237.317 353.23C236.96 353.606 236.81 354.098 236.867 354.708L238.09 367.646C238.149 368.273 238.389 368.729 238.809 369.014C239.214 369.318 239.928 369.464 240.953 369.452L241.013 370.088L225.763 371.529L224.908 366.557L225.569 366.495C225.842 367.392 226.13 368.083 226.432 368.568C226.736 369.069 227.068 369.422 227.429 369.627C227.792 369.85 228.215 369.981 228.697 370.02C229.18 370.06 229.736 370.068 230.366 370.042L235.846 369.678L235.132 362.13L232.092 362.519C231.399 362.602 230.884 362.762 230.547 362.999C230.212 363.253 229.99 363.616 229.881 364.087C229.771 364.559 229.717 365.163 229.718 365.898L229.058 365.96L228.371 358.691L229.032 358.629C229.167 359.334 229.331 359.9 229.525 360.326C229.704 360.77 229.982 361.086 230.358 361.273C230.737 361.476 231.283 361.553 231.996 361.503L235.055 361.316L234.282 353.132ZM195.119 369.37C196.126 369.357 196.838 369.195 197.253 368.884C197.649 368.589 197.87 368.127 197.916 367.499L198.85 354.588C198.895 353.96 198.744 353.455 198.396 353.071C198.03 352.703 197.349 352.449 196.352 352.309L196.4 351.647L204.116 352.205L204.068 352.867C203.095 352.865 202.402 353.019 201.987 353.331C201.572 353.642 201.341 354.12 201.294 354.765L200.381 367.395L208.343 352.511L209.947 352.627L216.006 369.37L215.644 369.421L216.625 355.848C216.671 355.22 216.519 354.723 216.17 354.356C215.821 353.99 215.157 353.729 214.179 353.572L214.225 352.936L220.54 353.393L220.494 354.029C219.503 354.043 218.8 354.205 218.385 354.517C217.953 354.827 217.715 355.287 217.671 355.898L216.747 368.681C216.694 369.411 216.85 369.96 217.216 370.328C217.582 370.696 218.263 370.958 219.258 371.115L219.212 371.752L214.145 371.386L208.188 355.008L199.987 370.362L195.072 370.006L195.119 369.37ZM186.943 349.445C187.722 349.628 188.458 349.88 189.152 350.2C189.825 350.534 190.486 350.846 191.134 351.139C191.762 351.444 192.419 351.625 193.105 351.681L192.279 356.863L191.658 356.717C191.621 355.537 191.39 354.512 190.965 353.643C190.54 352.774 189.964 352.061 189.238 351.506C188.492 350.963 187.638 350.578 186.677 350.352C185.932 350.177 185.223 350.141 184.552 350.246C183.863 350.346 183.279 350.602 182.797 351.013C182.295 351.437 181.955 352.03 181.775 352.792C181.6 353.538 181.646 354.196 181.914 354.766C182.182 355.336 182.596 355.844 183.156 356.29C183.711 356.753 184.334 357.189 185.025 357.596C185.712 358.02 186.397 358.452 187.081 358.893C187.764 359.333 188.377 359.81 188.921 360.322C189.461 360.851 189.853 361.451 190.098 362.12C190.339 362.806 190.356 363.588 190.149 364.467C189.923 365.428 189.478 366.206 188.813 366.801C188.132 367.393 187.314 367.786 186.359 367.981C185.383 368.189 184.324 368.158 183.181 367.889C182.452 367.717 181.825 367.518 181.302 367.29C180.762 367.058 180.292 366.825 179.893 366.591C179.489 366.373 179.113 366.189 178.764 366.037C178.399 365.881 178.016 365.799 177.615 365.793L178.35 361.219L178.972 361.365C178.949 362.426 179.137 363.336 179.536 364.094C179.914 364.865 180.441 365.487 181.116 365.961C181.792 366.434 182.552 366.771 183.397 366.969C184.109 367.137 184.787 367.156 185.429 367.028C186.051 366.912 186.58 366.669 187.016 366.3C187.433 365.943 187.711 365.467 187.851 364.87C188.011 364.191 187.953 363.583 187.677 363.046C187.381 362.521 186.953 362.036 186.394 361.59C185.818 361.139 185.176 360.709 184.468 360.297C183.761 359.886 183.059 359.45 182.363 358.989C181.663 358.545 181.046 358.05 180.51 357.504C179.957 356.954 179.562 356.328 179.325 355.625C179.072 354.919 179.054 354.102 179.273 353.174C179.534 352.064 180.038 351.186 180.784 350.54C181.514 349.89 182.417 349.472 183.492 349.288C184.55 349.1 185.701 349.152 186.943 349.445ZM168.573 343.951L168.32 344.537C167.596 344.281 167.005 344.127 166.544 344.077C166.068 344.02 165.684 344.095 165.391 344.302C165.091 344.525 164.829 344.894 164.607 345.41L158.822 358.819L161.649 359.871C162.085 360.022 162.494 360.125 162.879 360.179C163.256 360.25 163.643 360.213 164.039 360.068C164.412 359.933 164.824 359.666 165.274 359.267C165.709 358.861 166.205 358.269 166.764 357.49L167.35 357.743L164.798 362.37L149.842 355.918L151.503 350.907L152.089 351.159C151.906 352.1 151.823 352.871 151.842 353.472C151.838 354.082 151.923 354.573 152.097 354.944C152.255 355.309 152.488 355.604 152.799 355.831C153.086 356.066 153.434 356.291 153.843 356.504L156.572 357.848L162.356 344.439C162.586 343.908 162.67 343.453 162.611 343.075C162.545 342.713 162.336 342.382 161.983 342.082C161.624 341.797 161.111 341.483 160.443 341.139L160.696 340.553L168.573 343.951ZM146.593 343.046L146.038 343.933L136.859 338.195L137.414 337.308L146.593 343.046ZM149.151 337.509C149.494 336.961 149.585 336.446 149.424 335.964C149.24 335.487 148.757 334.944 147.974 334.335L148.312 333.793L154.915 337.921L154.577 338.462C153.671 338.016 152.967 337.827 152.463 337.894C151.951 337.975 151.532 338.275 151.208 338.795L144.319 349.814C143.986 350.348 143.899 350.856 144.059 351.337C144.211 351.834 144.69 352.384 145.496 352.988L145.158 353.529L138.555 349.402L138.893 348.861C139.805 349.33 140.516 349.524 141.029 349.443C141.518 349.367 141.929 349.062 142.263 348.528L149.151 337.509ZM139.128 331.243C139.47 330.695 139.562 330.18 139.401 329.698C139.217 329.222 138.734 328.679 137.951 328.069L138.289 327.528L144.892 331.655L144.553 332.196C143.648 331.751 142.943 331.561 142.44 331.628C141.928 331.709 141.509 332.009 141.184 332.529L134.296 343.548C133.962 344.082 133.876 344.59 134.036 345.072C134.188 345.568 134.667 346.118 135.473 346.723L135.135 347.264L128.532 343.136L128.87 342.595C129.781 343.064 130.493 343.258 131.005 343.177C131.494 343.101 131.906 342.797 132.239 342.263L139.128 331.243ZM137.094 326.79L136.678 327.274C136.241 326.922 135.724 326.714 135.128 326.651C134.507 326.59 133.721 326.802 132.768 327.286L117.885 334.57L116.664 333.523L121.619 317.697C121.909 316.758 121.993 315.978 121.873 315.36C121.742 314.755 121.424 314.224 120.918 313.768L121.333 313.283L127.478 318.55L127.063 319.034C126.044 318.183 125.306 317.775 124.85 317.81C124.37 317.847 123.989 318.305 123.707 319.184L119.22 333.327L118.621 333.083L132.101 326.377C132.937 325.951 133.344 325.515 133.322 325.07C133.3 324.625 132.816 323.987 131.871 323.154L132.286 322.67L137.094 326.79ZM129.105 328.383L128.172 328.962L121.755 323.463L122.204 322.468L129.105 328.383ZM119.629 310.967L119.153 311.392C118.605 310.854 118.133 310.466 117.736 310.226C117.329 309.974 116.948 309.88 116.595 309.944C116.229 310.02 115.837 310.245 115.418 310.619L104.522 320.342L106.642 322.487C106.973 322.808 107.302 323.073 107.627 323.285C107.94 323.508 108.306 323.637 108.726 323.673C109.122 323.707 109.608 323.639 110.184 323.466C110.749 323.282 111.449 322.954 112.284 322.483L112.708 322.959L108.444 326.08L97.5996 313.927L101.218 310.082L101.643 310.558C101.08 311.334 100.681 311.998 100.444 312.551C100.184 313.103 100.054 313.584 100.055 313.994C100.044 314.391 100.132 314.758 100.318 315.094C100.48 315.428 100.701 315.779 100.981 316.144L102.89 318.513L113.786 308.79C114.218 308.405 114.486 308.028 114.591 307.66C114.684 307.304 114.634 306.915 114.441 306.495C114.235 306.085 113.902 305.584 113.441 304.991L113.918 304.566L119.629 310.967ZM98.1971 280.221L85.783 294.379L85.2272 294.692L82.6426 290.112L83.1985 289.798C83.5331 290.391 83.8507 290.798 84.1514 291.019C84.4437 291.226 84.7539 291.256 85.0819 291.11C85.3867 290.957 85.741 290.65 86.1446 290.188L95.5526 279.691L95.9301 280.152L82.0043 282.85C81.4083 282.972 80.9662 283.123 80.6781 283.306C80.39 283.488 80.2587 283.757 80.2842 284.114C80.2866 284.465 80.4676 284.958 80.8272 285.596L80.2713 285.91L77.6115 281.196L78.1674 280.882C78.4499 281.348 78.8545 281.667 79.3814 281.839C79.885 282.004 80.6504 281.992 81.6774 281.804L97.4192 278.842L98.1971 280.221ZM103.529 289.671L92.9315 301.748C92.2965 302.458 91.8931 303.077 91.7213 303.604C91.5412 304.116 91.5818 304.62 91.843 305.118L91.2871 305.432L87.9497 299.517L88.5056 299.204C88.882 299.871 89.2312 300.299 89.5532 300.489C89.8603 300.687 90.1695 300.698 90.4808 300.522C90.7773 300.355 91.1135 300.067 91.4893 299.66L100.885 289.14L101.25 289.579L87.0862 292.324L87.9829 291.056L102.751 288.292L103.529 289.671ZM88.6846 267.077C89.2877 266.843 89.6692 266.485 89.8292 266.003C89.9673 265.512 89.9055 264.787 89.6439 263.83L90.239 263.599L93.0534 270.86L92.4583 271.09C92.0002 270.191 91.5496 269.617 91.1066 269.369C90.6477 269.127 90.1326 269.117 89.5613 269.338L77.4449 274.035C76.8577 274.263 76.4841 274.618 76.3241 275.099C76.1482 275.587 76.202 276.315 76.4856 277.282L75.8905 277.513L73.0761 270.252L73.6712 270.022C74.1196 270.943 74.5733 271.525 75.0322 271.767C75.469 271.999 75.9811 272.001 76.5682 271.774L88.6846 267.077ZM89.4991 261.428L88.8812 261.588C88.5264 260.625 88.1434 259.994 87.7323 259.696C87.3003 259.386 86.7878 259.308 86.1946 259.462L73.6639 262.706C73.0048 262.876 72.5699 263.2 72.3592 263.676C72.1443 264.136 72.1236 264.871 72.2971 265.881L71.6792 266.041L70.5211 261.568L82.9371 246.064L83.683 246.398L70.3256 250.015C69.8972 250.126 69.5746 250.306 69.3579 250.555C69.1205 250.793 68.9767 251.12 68.9265 251.537C68.8598 251.959 68.8849 252.497 69.0019 253.153L68.384 253.313L66.7524 247.01L67.3703 246.85C67.7086 247.818 68.0916 248.448 68.5192 248.742C68.9304 249.04 69.4408 249.11 70.0505 248.952L85.2505 245.017L85.66 246.599L73.0855 262.407L72.3149 262.079L85.9195 258.399C86.3149 258.296 86.6314 258.127 86.8688 257.889C87.1063 257.652 87.2584 257.323 87.325 256.901C87.3709 256.467 87.3437 255.92 87.2432 255.261L87.8611 255.101L89.4991 261.428ZM78.6288 221.442C78.6449 222.038 78.5235 222.586 78.2647 223.086C77.9883 223.571 77.6158 223.964 77.1472 224.266C76.6782 224.551 76.1545 224.701 75.576 224.717C74.9975 224.733 74.4749 224.611 74.0082 224.351C73.524 224.074 73.1393 223.702 72.8542 223.233C72.5686 222.747 72.4178 222.206 72.4017 221.61C72.3861 221.032 72.5079 220.501 72.7673 220.017C73.0266 219.533 73.3908 219.149 73.8599 218.864C74.3119 218.579 74.8271 218.429 75.4056 218.413C75.9841 218.398 76.5152 218.52 76.999 218.779C77.4827 219.038 77.8756 219.402 78.1778 219.871C78.4628 220.34 78.6132 220.864 78.6288 221.442Z" fill="#002910"/>
<path d="M161.16 183.113V187.686C159.104 184.39 155.911 182.369 151.961 182.369C143.52 182.369 138.758 188.59 138.758 196.937C138.758 205.338 143.574 211.771 152.069 211.771C156.02 211.771 159.158 209.751 161.16 206.454V211.027H167.762V183.113H161.16ZM153.368 206.242C148.552 206.242 145.792 201.829 145.792 196.937C145.792 192.152 148.498 187.952 153.476 187.952C157.589 187.952 161.106 190.876 161.106 196.831C161.106 202.679 157.751 206.242 153.368 206.242Z" fill="#000D05"/>
<path d="M173.438 183.115V211.029H180.472V183.115H173.438Z" fill="#000D05"/>
<path d="M193.441 190.025V183.113H186.406V211.027H193.441V195.076C193.441 190.982 196.309 189.334 199.014 189.334C200.584 189.334 202.207 189.759 203.073 190.078V182.635C198.473 182.635 194.685 185.346 193.441 190.025Z" fill="#000D05"/>
<path d="M204.789 191.621C204.789 200.287 210.85 206.455 219.562 206.455C228.328 206.455 234.335 200.287 234.335 191.621C234.335 183.114 228.328 177.053 219.562 177.053C210.85 177.053 204.789 183.114 204.789 191.621ZM227.3 191.621C227.3 197.044 224.324 200.925 219.562 200.925C214.746 200.925 211.824 197.044 211.824 191.621C211.824 186.41 214.746 182.635 219.562 182.635C224.324 182.635 227.3 186.41 227.3 191.621Z" fill="#000D05"/>
<path d="M253.967 182.369C249.855 182.369 246.5 184.762 244.714 188.59V183.113H237.68V220.331H244.714V206.029C246.716 209.485 250.45 211.771 254.4 211.771C262.084 211.771 267.441 205.87 267.441 197.416C267.441 188.537 261.868 182.369 253.967 182.369ZM252.723 206.561C248.015 206.561 244.714 202.679 244.714 197.15C244.714 191.461 248.015 187.473 252.723 187.473C257.214 187.473 260.407 191.567 260.407 197.363C260.407 202.786 257.214 206.561 252.723 206.561Z" fill="#000D05"/>
<path d="M269.68 201.35C269.68 206.401 274.225 211.771 283.316 211.771C292.461 211.771 295.762 206.508 295.762 202.414C295.762 196.14 288.24 195.023 283.208 194.066C279.799 193.481 277.634 193.003 277.634 191.089C277.634 188.909 280.069 187.526 282.667 187.526C286.184 187.526 287.537 189.919 287.645 192.471H294.68C294.68 188.324 291.703 182.369 282.504 182.369C274.55 182.369 270.6 186.782 270.6 191.514C270.6 198.267 278.229 198.958 283.262 199.915C286.184 200.446 288.727 201.084 288.727 203.158C288.727 205.232 286.238 206.614 283.587 206.614C281.097 206.614 276.714 205.232 276.714 201.35H269.68Z" fill="#000D05"/>
<path d="M177.085 179.708C174.197 179.708 172.125 177.673 172.125 174.896C172.125 172.12 174.197 169.961 177.085 169.961C179.848 169.961 182.046 172.12 182.046 174.896C182.046 177.673 179.848 179.708 177.085 179.708Z" fill="#000D05"/>
<path d="M141.763 223.143V221.954H153.465V223.143C151.911 223.333 150.786 223.73 150.088 224.332C149.39 224.903 149.041 225.791 149.041 226.996L148.946 243.836C148.946 246.5 148.391 248.799 147.281 250.734C146.203 252.637 144.665 254.095 142.667 255.11C140.669 256.125 138.322 256.633 135.627 256.633C133.407 256.633 131.409 256.363 129.633 255.824C127.888 255.253 126.398 254.428 125.161 253.35C123.924 252.272 122.973 250.94 122.307 249.354C121.673 247.737 121.355 245.898 121.355 243.836V226.996C121.355 225.855 121.022 224.983 120.356 224.38C119.722 223.746 118.565 223.333 116.884 223.143V221.954H130.822V223.143C128.951 223.333 127.666 223.73 126.969 224.332C126.271 224.935 125.922 225.823 125.922 226.996V243.836C125.922 245.961 126.366 247.816 127.254 249.402C128.142 250.956 129.379 252.161 130.965 253.017C132.582 253.873 134.469 254.302 136.625 254.302C138.719 254.302 140.526 253.873 142.048 253.017C143.602 252.129 144.808 250.908 145.664 249.354C146.52 247.769 146.932 245.929 146.901 243.836L146.758 226.996C146.726 225.823 146.33 224.935 145.569 224.332C144.839 223.73 143.571 223.333 141.763 223.143ZM161.023 237.604C161.721 235.86 162.815 234.528 164.305 233.609C165.796 232.657 167.445 232.181 169.253 232.181C170.775 232.181 172.091 232.514 173.201 233.18C174.343 233.815 175.215 234.734 175.817 235.939C176.452 237.145 176.769 238.556 176.769 240.173V252.113C176.769 252.97 177.038 253.636 177.577 254.111C178.117 254.555 179.147 254.872 180.67 255.063V256.252H168.967V255.063C170.394 254.872 171.362 254.571 171.869 254.159C172.408 253.715 172.678 253.033 172.678 252.113V240.506C172.678 238.762 172.234 237.414 171.346 236.463C170.458 235.48 169.142 234.988 167.397 234.988C166.446 234.988 165.479 235.258 164.496 235.797C163.513 236.336 162.688 237.097 162.022 238.08C161.356 239.032 161.023 240.189 161.023 241.553V252.113C161.023 253.033 161.293 253.715 161.832 254.159C162.403 254.571 163.386 254.872 164.781 255.063V256.252H153.079V255.063C154.601 254.872 155.616 254.571 156.123 254.159C156.662 253.715 156.932 253.033 156.932 252.113V237.129C156.932 236.463 156.758 235.971 156.409 235.654C156.092 235.305 155.552 235.131 154.791 235.131H153.174V233.942L159.834 232.419H161.023V237.604ZM180.536 256.252V255.063C181.995 254.872 183.009 254.555 183.58 254.111C184.151 253.667 184.436 252.954 184.436 251.971V237.129C184.436 236.431 184.262 235.924 183.913 235.607C183.564 235.289 183.009 235.131 182.248 235.131H180.631V233.942L187.291 232.419H188.48V251.971C188.48 252.922 188.765 253.636 189.336 254.111C189.939 254.555 190.954 254.872 192.381 255.063V256.252H180.536ZM186.482 228.233C185.753 228.233 185.118 227.979 184.579 227.472C184.072 226.933 183.818 226.299 183.818 225.569C183.818 225.062 183.929 224.618 184.151 224.237C184.405 223.825 184.738 223.508 185.15 223.286C185.562 223.032 186.006 222.905 186.482 222.905C187.243 222.905 187.877 223.159 188.385 223.666C188.892 224.174 189.146 224.808 189.146 225.569C189.146 226.045 189.019 226.489 188.765 226.901C188.543 227.313 188.226 227.646 187.814 227.9C187.433 228.122 186.989 228.233 186.482 228.233ZM202.284 256.252L194.387 236.891C194.038 236.035 193.563 235.321 192.96 234.75C192.358 234.148 191.644 233.815 190.819 233.751V232.562H201.761V233.751C200.492 233.878 199.604 234.179 199.097 234.655C198.589 235.131 198.51 235.829 198.859 236.748L205.138 253.16L203.854 254.111L210.418 236.701C210.767 235.844 210.704 235.163 210.228 234.655C209.784 234.116 208.959 233.815 207.754 233.751V232.562H215.27V233.751C214.668 233.815 214.097 234.116 213.558 234.655C213.051 235.194 212.591 235.939 212.178 236.891L204.282 256.252H202.284ZM226.018 256.633C223.798 256.633 221.832 256.141 220.119 255.158C218.407 254.175 217.075 252.811 216.123 251.067C215.204 249.291 214.744 247.245 214.744 244.93C214.744 242.964 215.045 241.204 215.648 239.65C216.25 238.064 217.075 236.716 218.121 235.607C219.2 234.497 220.436 233.656 221.832 233.085C223.259 232.483 224.781 232.181 226.399 232.181C227.953 232.181 229.3 232.435 230.442 232.943C231.615 233.45 232.583 234.164 233.344 235.083C234.137 236.003 234.707 237.065 235.056 238.27C235.405 239.476 235.548 240.792 235.484 242.219H218.264V240.697H229.3C229.681 240.697 229.998 240.633 230.252 240.506C230.505 240.348 230.696 240.126 230.823 239.84C230.981 239.555 231.06 239.222 231.06 238.841C231.06 237.414 230.616 236.209 229.728 235.226C228.84 234.211 227.62 233.704 226.066 233.704C225.019 233.704 224.052 233.942 223.164 234.417C222.276 234.861 221.515 235.511 220.88 236.368C220.246 237.224 219.755 238.239 219.406 239.412C219.057 240.586 218.882 241.886 218.882 243.313C218.882 245.406 219.231 247.229 219.929 248.783C220.627 250.337 221.61 251.543 222.878 252.399C224.179 253.223 225.717 253.636 227.493 253.636C229.332 253.636 230.87 253.144 232.107 252.161C233.344 251.178 234.248 249.798 234.818 248.022H236.008C235.405 250.813 234.263 252.954 232.583 254.444C230.934 255.903 228.745 256.633 226.018 256.633ZM244.833 237.462C245.404 235.718 246.229 234.401 247.307 233.513C248.417 232.625 249.543 232.181 250.685 232.181C251.731 232.181 252.572 232.467 253.206 233.038C253.872 233.609 254.205 234.259 254.205 234.988C254.205 235.622 253.999 236.146 253.586 236.558C253.174 236.97 252.667 237.176 252.064 237.176C251.62 237.176 251.255 237.065 250.97 236.843C250.716 236.621 250.51 236.383 250.352 236.13C250.225 235.876 250.05 235.638 249.828 235.416C249.638 235.194 249.337 235.083 248.924 235.083C248.227 235.083 247.561 235.416 246.927 236.082C246.324 236.748 245.817 237.604 245.404 238.651C245.024 239.698 244.833 240.792 244.833 241.933V252.066C244.833 253.081 245.214 253.794 245.975 254.206C246.736 254.619 247.926 254.904 249.543 255.063V256.252H237.222V255.063C238.522 254.904 239.426 254.603 239.934 254.159C240.473 253.683 240.742 252.985 240.742 252.066V237.129C240.742 236.463 240.568 235.971 240.219 235.654C239.902 235.305 239.363 235.131 238.602 235.131H236.984V233.942L243.644 232.419H244.833V237.462ZM263.689 256.633C262.547 256.633 261.516 256.506 260.597 256.252C259.709 256.03 258.884 255.84 258.123 255.681C257.394 255.523 256.664 255.538 255.935 255.729L254.936 248.783H256.125C256.823 250.813 257.774 252.383 258.979 253.493C260.184 254.603 261.707 255.158 263.546 255.158C265.005 255.158 266.226 254.793 267.209 254.064C268.192 253.303 268.684 252.272 268.684 250.972C268.684 249.925 268.366 249.101 267.732 248.498C267.098 247.864 266.257 247.34 265.211 246.928C264.196 246.516 263.118 246.12 261.976 245.739C260.834 245.358 259.756 244.899 258.741 244.359C257.727 243.82 256.886 243.123 256.22 242.266C255.586 241.41 255.269 240.284 255.269 238.889C255.269 237.684 255.507 236.669 255.982 235.844C256.458 234.988 257.092 234.29 257.885 233.751C258.678 233.212 259.55 232.816 260.502 232.562C261.485 232.308 262.452 232.181 263.403 232.181C264.608 232.181 265.623 232.308 266.448 232.562C267.304 232.784 268.049 232.99 268.684 233.18C269.318 233.371 269.952 233.402 270.586 233.276L271.015 239.46H269.778C269.524 238.191 269.08 237.129 268.446 236.272C267.843 235.416 267.098 234.766 266.21 234.322C265.322 233.878 264.355 233.656 263.308 233.656C262.103 233.656 261.025 233.989 260.073 234.655C259.122 235.289 258.646 236.209 258.646 237.414C258.646 238.429 258.963 239.238 259.598 239.84C260.264 240.411 261.104 240.903 262.119 241.315C263.165 241.695 264.26 242.076 265.401 242.457C266.575 242.805 267.669 243.249 268.684 243.789C269.73 244.328 270.571 245.041 271.205 245.929C271.871 246.817 272.204 247.991 272.204 249.449C272.204 250.908 271.839 252.177 271.11 253.255C270.38 254.302 269.381 255.126 268.113 255.729C266.844 256.331 265.37 256.633 263.689 256.633ZM273.595 256.252V255.063C275.054 254.872 276.068 254.555 276.639 254.111C277.21 253.667 277.496 252.954 277.496 251.971V237.129C277.496 236.431 277.321 235.924 276.972 235.607C276.623 235.289 276.068 235.131 275.307 235.131H273.69V233.942L280.35 232.419H281.539V251.971C281.539 252.922 281.824 253.636 282.395 254.111C282.998 254.555 284.013 254.872 285.44 255.063V256.252H273.595ZM279.541 228.233C278.812 228.233 278.177 227.979 277.638 227.472C277.131 226.933 276.877 226.299 276.877 225.569C276.877 225.062 276.988 224.618 277.21 224.237C277.464 223.825 277.797 223.508 278.209 223.286C278.621 223.032 279.065 222.905 279.541 222.905C280.302 222.905 280.936 223.159 281.444 223.666C281.951 224.174 282.205 224.808 282.205 225.569C282.205 226.045 282.078 226.489 281.824 226.901C281.602 227.313 281.285 227.646 280.873 227.9C280.492 228.122 280.048 228.233 279.541 228.233ZM299.14 251.257H300.329C300.202 252.24 299.885 253.144 299.377 253.969C298.87 254.761 298.204 255.412 297.38 255.919C296.587 256.395 295.683 256.633 294.668 256.633C293.495 256.633 292.448 256.411 291.528 255.967C290.64 255.523 289.943 254.857 289.435 253.969C288.96 253.049 288.722 251.891 288.722 250.496V234.655H284.726V233.418C285.614 233.323 286.438 233.101 287.2 232.752C287.961 232.403 288.642 231.975 289.245 231.468C289.879 230.96 290.403 230.39 290.815 229.755C291.227 229.089 291.528 228.36 291.719 227.567H292.908V232.562H299.33V234.655H292.86V250.211C292.86 251.003 292.971 251.685 293.193 252.256C293.447 252.827 293.812 253.271 294.287 253.588C294.763 253.873 295.318 254.016 295.952 254.016C296.714 254.016 297.38 253.762 297.95 253.255C298.553 252.748 298.949 252.082 299.14 251.257ZM304.067 265.528C302.862 265.528 301.863 265.243 301.07 264.672C300.277 264.101 299.881 263.419 299.881 262.626C299.881 262.024 300.103 261.501 300.547 261.057C300.991 260.613 301.514 260.391 302.117 260.391C302.593 260.391 302.957 260.47 303.211 260.628C303.496 260.819 303.734 261.025 303.925 261.247C304.147 261.501 304.416 261.723 304.733 261.913C305.05 262.103 305.478 262.198 306.018 262.198C307.032 262.198 307.857 261.802 308.491 261.009C309.126 260.216 309.68 259.233 310.156 258.06L318.671 236.701C319.02 235.844 318.957 235.163 318.481 234.655C318.037 234.116 317.197 233.815 315.96 233.751V232.562H323.523V233.751C322.889 233.815 322.318 234.116 321.811 234.655C321.303 235.194 320.844 235.939 320.431 236.891L311.583 258.44C311.234 259.296 310.838 260.137 310.394 260.961C309.95 261.818 309.427 262.579 308.824 263.245C308.222 263.942 307.524 264.497 306.731 264.91C305.938 265.322 305.05 265.528 304.067 265.528ZM311.155 257.013L302.497 236.891C302.149 236.035 301.673 235.321 301.07 234.75C300.468 234.148 299.77 233.815 298.977 233.751V232.562H309.871V233.751C308.634 233.878 307.746 234.179 307.207 234.655C306.668 235.131 306.588 235.829 306.969 236.748L313.248 252.113L311.155 257.013Z" fill="#000D05"/>
</svg>
