<svg width="1622" height="2580" viewBox="0 0 1622 2580" fill="none" xmlns="http://www.w3.org/2000/svg">
<mask id="path-1-outside-1_1422_37453" maskUnits="userSpaceOnUse" x="36" y="1457" width="768" height="803" fill="black">
<rect fill="white" x="36" y="1457" width="768" height="803"/>
<path d="M312.576 2256.91C153.311 2256.91 40.1883 2160.16 40.1883 2032.15C40.1883 1893.72 136.938 1810.37 312.576 1788.04L455.468 1768.69C491.191 1762.74 510.541 1741.9 510.541 1712.13C510.541 1665.99 462.91 1625.8 384.022 1625.8C312.576 1625.8 253.038 1665.99 250.061 1735.95H40.1883C59.5383 1567.75 186.057 1460.58 384.022 1460.58C596.871 1460.58 729.344 1581.15 729.344 1777.62V2008.34C729.344 2047.04 742.74 2070.85 775.486 2070.85C784.417 2070.85 793.348 2069.36 800.79 2067.87V2245C779.952 2249.47 739.763 2255.42 695.11 2255.42C614.733 2255.42 556.683 2219.7 544.775 2155.69C513.518 2218.21 425.699 2256.91 312.576 2256.91ZM351.276 2096.15C455.468 2096.15 517.983 2014.29 517.983 1919.03V1902.65L349.787 1930.94C285.784 1941.35 254.526 1972.61 254.526 2020.24C254.526 2061.92 290.249 2096.15 351.276 2096.15Z"/>
</mask>
<path d="M312.576 1788.04L312.954 1791.02L312.966 1791.02L312.979 1791.02L312.576 1788.04ZM455.468 1768.69L455.871 1771.67L455.916 1771.66L455.961 1771.65L455.468 1768.69ZM250.061 1735.95V1738.95H252.936L253.058 1736.08L250.061 1735.95ZM40.1883 1735.95L37.208 1735.6L36.8234 1738.95H40.1883V1735.95ZM800.79 2067.87H803.79V2064.21L800.202 2064.93L800.79 2067.87ZM800.79 2245L801.419 2247.93L803.79 2247.43V2245H800.79ZM544.775 2155.69L547.725 2155.14L546.09 2146.36L542.092 2154.35L544.775 2155.69ZM517.983 1902.65H520.983V1899.11L517.486 1899.7L517.983 1902.65ZM349.787 1930.94L350.27 1933.9L350.277 1933.9L350.285 1933.89L349.787 1930.94ZM312.576 2256.91V2253.91C154.435 2253.91 43.1883 2158.01 43.1883 2032.15H40.1883H37.1883C37.1883 2162.3 152.187 2259.91 312.576 2259.91V2256.91ZM40.1883 2032.15H43.1883C43.1883 1963.71 67.0679 1909.11 112.509 1868.8C158.041 1828.41 225.483 1802.14 312.954 1791.02L312.576 1788.04L312.198 1785.07C224.031 1796.28 155.279 1822.84 108.527 1864.32C61.6837 1905.87 37.1883 1962.16 37.1883 2032.15H40.1883ZM312.576 1788.04L312.979 1791.02L455.871 1771.67L455.468 1768.69L455.065 1765.72L312.173 1785.07L312.576 1788.04ZM455.468 1768.69L455.961 1771.65C474.28 1768.6 488.701 1761.68 498.563 1751.42C508.459 1741.13 513.541 1727.71 513.541 1712.13H510.541H507.541C507.541 1726.33 502.947 1738.21 494.238 1747.26C485.494 1756.36 472.379 1762.83 454.975 1765.73L455.468 1768.69ZM510.541 1712.13H513.541C513.541 1663.52 463.612 1622.8 384.022 1622.8V1625.8V1628.8C462.208 1628.8 507.541 1668.46 507.541 1712.13H510.541ZM384.022 1625.8V1622.8C347.763 1622.8 314.333 1633 289.525 1652.27C264.661 1671.59 248.591 1699.94 247.064 1735.82L250.061 1735.95L253.058 1736.08C254.508 1702 269.695 1675.28 293.206 1657.01C316.773 1638.7 348.835 1628.8 384.022 1628.8V1625.8ZM250.061 1735.95V1732.95H40.1883V1735.95V1738.95H250.061V1735.95ZM40.1883 1735.95L43.1687 1736.29C52.7633 1652.89 88.8907 1584.79 147.017 1537.52C205.168 1490.23 285.575 1463.58 384.022 1463.58V1460.58V1457.58C284.504 1457.58 202.669 1484.52 143.232 1532.86C83.7703 1581.22 46.9633 1650.81 37.208 1735.6L40.1883 1735.95ZM384.022 1460.58V1463.58C489.894 1463.58 575.434 1493.56 634.475 1547.64C693.485 1601.68 726.344 1680.09 726.344 1777.62H729.344H732.344C732.344 1678.68 698.967 1598.57 638.528 1543.21C578.12 1487.89 490.999 1457.58 384.022 1457.58V1460.58ZM729.344 1777.62H726.344V2008.34H729.344H732.344V1777.62H729.344ZM729.344 2008.34H726.344C726.344 2027.94 729.72 2044.29 737.666 2055.81C745.749 2067.53 758.279 2073.85 775.486 2073.85V2070.85V2067.85C759.948 2067.85 749.406 2062.26 742.605 2052.4C735.666 2042.34 732.344 2027.43 732.344 2008.34H729.344ZM775.486 2070.85V2073.85C784.72 2073.85 793.884 2072.31 801.378 2070.82L800.79 2067.87L800.202 2064.93C792.812 2066.41 784.114 2067.85 775.486 2067.85V2070.85ZM800.79 2067.87H797.79V2245H800.79H803.79V2067.87H800.79ZM800.79 2245L800.161 2242.07C779.504 2246.49 739.528 2252.42 695.11 2252.42V2255.42V2258.42C739.999 2258.42 780.399 2252.44 801.419 2247.93L800.79 2245ZM695.11 2255.42V2252.42C615.528 2252.42 559.265 2217.17 547.725 2155.14L544.775 2155.69L541.826 2156.24C554.101 2222.22 613.938 2258.42 695.11 2258.42V2255.42ZM544.775 2155.69L542.092 2154.35C511.605 2215.32 425.301 2253.91 312.576 2253.91V2256.91V2259.91C426.096 2259.91 515.43 2221.09 547.459 2157.03L544.775 2155.69ZM351.276 2096.15V2099.15C457.459 2099.15 520.983 2015.59 520.983 1919.03H517.983H514.983C514.983 2012.99 453.477 2093.15 351.276 2093.15V2096.15ZM517.983 1919.03H520.983V1902.65H517.983H514.983V1919.03H517.983ZM517.983 1902.65L517.486 1899.7L349.29 1927.98L349.787 1930.94L350.285 1933.89L518.481 1905.61L517.983 1902.65ZM349.787 1930.94L349.305 1927.97C316.952 1933.24 292.489 1943.83 276.086 1959.46C259.606 1975.17 251.526 1995.71 251.526 2020.24H254.526H257.526C257.526 1997.15 265.075 1978.24 280.225 1963.81C295.452 1949.3 318.619 1939.05 350.27 1933.9L349.787 1930.94ZM254.526 2020.24H251.526C251.526 2041.99 260.868 2061.81 278.098 2076.13C295.301 2090.44 320.213 2099.15 351.276 2099.15V2096.15V2093.15C321.312 2093.15 297.849 2084.75 281.934 2071.52C266.046 2058.31 257.526 2040.17 257.526 2020.24H254.526Z" fill="white" mask="url(#path-1-outside-1_1422_37453)"/>
<mask id="path-3-outside-2_1422_37453" maskUnits="userSpaceOnUse" x="828" y="1273" width="770" height="803" fill="black">
<rect fill="white" x="828" y="1273" width="770" height="803"/>
<path d="M1221.68 2072.91C993.942 2072.91 831.7 1909.18 831.7 1674C831.7 1440.31 993.942 1276.58 1221.68 1276.58C1422.62 1276.58 1567 1379.29 1593.79 1581.72H1379.45C1367.54 1513.25 1305.03 1462.64 1227.63 1462.64C1121.95 1462.64 1051.99 1545.99 1051.99 1674C1051.99 1803.5 1123.44 1886.85 1227.63 1886.85C1306.52 1886.85 1363.08 1837.73 1377.96 1764.8L1590.81 1764.8C1562.53 1973.18 1419.64 2072.91 1221.68 2072.91Z"/>
</mask>
<path d="M1593.79 1581.72V1584.72H1597.21L1596.76 1581.32L1593.79 1581.72ZM1379.45 1581.72L1376.5 1582.23L1376.93 1584.72H1379.45V1581.72ZM1377.96 1764.8V1761.8H1375.51L1375.02 1764.2L1377.96 1764.8ZM1590.81 1764.8L1593.79 1765.2L1594.25 1761.8H1590.81V1764.8ZM1221.68 2072.91V2069.91C1108.55 2069.91 1011.85 2029.25 943.429 1959.54C875.006 1889.83 834.7 1790.88 834.7 1674H831.7H828.7C828.7 1792.29 869.515 1892.8 939.147 1963.75C1008.78 2034.7 1107.07 2075.91 1221.68 2075.91V2072.91ZM831.7 1674H834.7C834.7 1557.87 875.003 1459.29 943.426 1389.76C1011.85 1320.24 1108.55 1279.58 1221.68 1279.58V1276.58V1273.58C1107.07 1273.58 1008.78 1314.79 939.149 1385.55C869.518 1456.31 828.7 1556.45 828.7 1674H831.7ZM1221.68 1276.58V1279.58C1321.65 1279.58 1407.27 1305.13 1471.18 1355.59C1535.05 1406.03 1577.51 1481.56 1590.82 1582.11L1593.79 1581.72L1596.76 1581.32C1583.28 1479.44 1540.15 1402.41 1474.9 1350.88C1409.68 1299.39 1322.64 1273.58 1221.68 1273.58V1276.58ZM1593.79 1581.72V1578.72H1379.45V1581.72V1584.72H1593.79V1581.72ZM1379.45 1581.72L1382.41 1581.2C1370.22 1511.15 1306.33 1459.64 1227.63 1459.64V1462.64V1465.64C1303.73 1465.64 1364.86 1515.35 1376.5 1582.23L1379.45 1581.72ZM1227.63 1462.64V1459.64C1173.94 1459.64 1129.17 1480.85 1097.88 1518.4C1066.63 1555.9 1048.99 1609.47 1048.99 1674H1051.99H1054.99C1054.99 1610.52 1072.34 1558.42 1102.49 1522.24C1132.59 1486.11 1175.64 1465.64 1227.63 1465.64V1462.64ZM1051.99 1674H1048.99C1048.99 1739.28 1067 1793.23 1098.43 1830.91C1129.91 1868.64 1174.67 1889.85 1227.63 1889.85V1886.85V1883.85C1176.4 1883.85 1133.34 1863.39 1103.04 1827.07C1072.7 1790.7 1054.99 1738.22 1054.99 1674H1051.99ZM1227.63 1886.85V1889.85C1307.98 1889.85 1365.74 1839.7 1380.9 1765.4L1377.96 1764.8L1375.02 1764.2C1360.42 1835.77 1305.06 1883.85 1227.63 1883.85V1886.85ZM1377.96 1764.8L1377.96 1767.8L1590.81 1767.8L1590.81 1764.8V1761.8L1377.96 1761.8V1764.8ZM1590.81 1764.8L1587.84 1764.39C1573.79 1867.95 1531.31 1944.23 1468.01 1994.65C1404.67 2045.1 1320.17 2069.91 1221.68 2069.91V2072.91V2075.91C1321.15 2075.91 1407.08 2050.85 1471.75 1999.34C1536.45 1947.81 1579.56 1870.03 1593.79 1765.2L1590.81 1764.8Z" fill="white" mask="url(#path-3-outside-2_1422_37453)"/>
<mask id="path-5-outside-3_1422_37453" maskUnits="userSpaceOnUse" x="246" y="265" width="802" height="1104" fill="black">
<rect fill="white" x="246" y="265" width="802" height="1104"/>
<path d="M675.633 1365.91C581.86 1365.91 504.461 1327.21 467.249 1275.11V1354H249.934L249.934 268.915L467.249 268.915L467.249 657.402C510.414 603.818 586.326 569.583 678.61 569.583C900.39 569.583 1044.77 725.871 1044.77 967.001C1044.77 1208.13 901.879 1365.91 675.633 1365.91ZM639.91 1179.85C750.056 1179.85 822.99 1093.52 822.99 967.001C822.99 840.482 750.056 755.64 639.91 755.64C529.764 755.64 455.342 840.482 455.342 967.001C455.342 1095.01 529.764 1179.85 639.91 1179.85Z"/>
</mask>
<path d="M467.249 1275.11L469.69 1273.37L464.249 1265.75V1275.11H467.249ZM467.249 1354V1357H470.249V1354H467.249ZM249.934 1354H246.934V1357H249.934V1354ZM249.934 268.915V265.915H246.934V268.915H249.934ZM467.249 268.915H470.249V265.915H467.249V268.915ZM467.249 657.402H464.249V665.908L469.585 659.284L467.249 657.402ZM675.633 1365.91V1362.91C582.594 1362.91 506.215 1324.5 469.69 1273.37L467.249 1275.11L464.808 1276.86C502.706 1329.91 581.126 1368.91 675.633 1368.91V1365.91ZM467.249 1275.11H464.249V1354H467.249H470.249V1275.11H467.249ZM467.249 1354V1351H249.934V1354V1357H467.249V1354ZM249.934 1354H252.934L252.934 268.915H249.934H246.934L246.934 1354H249.934ZM249.934 268.915V271.915L467.249 271.915V268.915V265.915L249.934 265.915V268.915ZM467.249 268.915H464.249L464.249 657.402H467.249H470.249L470.249 268.915H467.249ZM467.249 657.402L469.585 659.284C512.063 606.553 587.027 572.583 678.61 572.583V569.583V566.583C585.625 566.583 508.766 601.082 464.913 655.52L467.249 657.402ZM678.61 569.583V572.583C788.762 572.583 879.467 611.374 942.652 679.902C1005.86 748.454 1041.77 847.029 1041.77 967.001H1044.77H1047.77C1047.77 845.843 1011.49 745.709 947.063 675.835C882.614 605.936 790.238 566.583 678.61 566.583V569.583ZM1044.77 967.001H1041.77C1041.77 1086.98 1006.23 1185.93 942.836 1254.85C879.47 1323.74 788.025 1362.91 675.633 1362.91V1365.91V1368.91C789.487 1368.91 882.611 1329.19 947.252 1258.91C1011.87 1188.66 1047.77 1088.15 1047.77 967.001H1044.77ZM639.91 1179.85V1182.85C695.825 1182.85 742.441 1160.91 775.034 1122.82C807.593 1084.77 825.99 1030.82 825.99 967.001H822.99H819.99C819.99 1029.7 801.921 1082.17 770.476 1118.92C739.066 1155.63 694.141 1176.85 639.91 1176.85V1179.85ZM822.99 967.001H825.99C825.99 903.18 807.592 849.594 775.025 811.914C742.423 774.195 695.808 752.64 639.91 752.64V755.64V758.64C694.158 758.64 739.083 779.506 770.485 815.838C801.922 852.209 819.99 904.304 819.99 967.001H822.99ZM639.91 755.64V752.64C584.016 752.64 537.035 774.192 504.063 811.901C471.121 849.576 452.342 903.164 452.342 967.001H455.342H458.342C458.342 904.319 476.774 852.227 508.58 815.851C540.355 779.509 585.659 758.64 639.91 758.64V755.64ZM455.342 967.001H452.342C452.342 1031.57 471.116 1085.53 504.058 1123.4C537.031 1161.3 584.015 1182.85 639.91 1182.85V1179.85V1176.85C585.659 1176.85 540.359 1155.98 508.585 1119.46C476.778 1082.9 458.342 1030.44 458.342 967.001H455.342Z" fill="white" mask="url(#path-5-outside-3_1422_37453)"/>
</svg>
